8_ID_stride3.mot
nRows=11
nColumns=38

name 8_ID_stride3.mot
datacolumns 38
datarows 11
range 0.9100000000 0.9600000000
endheader
time	pelvis_tilt_moment	pelvis_list_moment	pelvis_rotation_moment	pelvis_tx_force	pelvis_ty_force	pelvis_tz_force	hip_flexion_r_moment	hip_adduction_r_moment	hip_rotation_r_moment	knee_angle_r_moment	ankle_angle_r_moment	subtalar_angle_r_moment	mtp_angle_r_moment	hip_flexion_l_moment	hip_adduction_l_moment	hip_rotation_l_moment	knee_angle_l_moment	ankle_angle_l_moment	subtalar_angle_l_moment	mtp_angle_l_moment	lumbar_extension_moment	lumbar_bending_moment	lumbar_rotation_moment	arm_flex_r_moment	arm_add_r_moment	arm_rot_r_moment	elbow_flex_r_moment	pro_sup_r_moment	wrist_flex_r_moment	wrist_dev_r_moment	arm_flex_l_moment	arm_add_l_moment	arm_rot_l_moment	elbow_flex_l_moment	pro_sup_l_moment	wrist_flex_l_moment	wrist_dev_l_moment
        0.9100000000	      -29.7715339002	       75.5866836905	       41.1336738201	      131.4442640281	      439.6689619326	       36.5595581664	       61.2323528981	        3.4609354126	       -2.3992869048	       19.2087526549	        4.1946213642	       -0.3065735774	        0.2146199054	       -2.3283507482	      -13.3942269486	      -13.1781036674	       -0.2266415292	       20.2895574416	      -10.4495231782	        0.2516626700	       30.7076055984	       27.5617633453	       11.9068016653	       -4.4858287929	        0.1611980870	        1.3509002935	        1.0428891220	        0.0204381344	        0.1824022248	       -0.0093279117	       -7.6381485795	        0.9957574684	        0.5447159195	        0.8007449808	       -0.0152032312	        0.0408991129	       -0.0236345181	
        0.9150000000	      -50.5455837655	       79.3814990724	       59.1539617995	      147.6376894200	      410.9067270526	      -24.9031702337	       62.4106173428	        4.0447998724	       -2.0417581681	       18.1926807292	        4.1268561085	       -0.2997501799	        0.2116948104	       -8.0139195438	      -38.4764864643	      -16.9942019100	       16.0112953417	       23.8284543348	      -10.6748333067	        0.3284786012	       37.0576778754	       38.5434941088	       15.9274902857	       -3.7658211057	       -0.0844987510	        1.3763692455	        2.0436645151	        0.0056448270	        0.2203579174	       -0.0908594888	       -7.6745154171	        1.6965773244	        0.6042387155	        1.7111389352	       -0.0350370184	        0.0522847036	       -0.1047394773	
        0.9200000000	      -62.4958389310	       71.9847607913	       73.9011363283	      144.6524018514	      278.8873220667	      -99.3815089498	       67.2996363592	        6.2505822244	       -1.7040989744	       18.0303888147	        4.1172578525	       -0.3056448838	        0.2109777049	      -35.1299876465	      -62.3826789854	      -21.7406043434	       26.1449044148	       22.5765359995	      -10.1943097286	        0.3811647319	       37.0825847506	       43.0069609454	       18.2276980662	       -2.5538962934	       -0.1723729412	        1.3540121008	        2.7619781188	       -0.0084898897	        0.2352353355	       -0.1537300168	       -7.0898833990	        2.0561124052	        0.5920022641	        2.3998002682	       -0.0517723606	        0.0541825254	       -0.1693385202	
        0.9250000000	      -64.6476382131	       37.3915338140	       81.6485941171	      106.7637678721	       69.9461270921	     -156.1315644487	       73.7837716942	        9.3264998025	       -1.5407331889	       18.9452359350	        4.1545520611	       -0.3313680362	        0.2111066837	      -78.6863496919	      -76.1243443348	      -27.7819083568	       29.7638282358	        9.3683392875	       -8.7201482486	        0.4021635865	       27.5526623655	       43.1609036776	       18.9149871199	       -1.2523113906	       -0.1266737930	        1.2902242468	        3.0408094013	       -0.0157802781	        0.2368158922	       -0.1797812663	       -5.7675390468	        2.1053340705	        0.4094655536	        2.6837753887	       -0.0623809614	        0.0413413923	       -0.1978734238	
        0.9300000000	      -49.8455110703	       -8.6001098767	       83.3108154511	       50.6326855409	     -165.0110921446	     -179.5195122089	       79.6394484131	       12.7066485921	       -1.5981491884	       20.8758398682	        4.2051300566	       -0.3546008838	        0.2116635836	     -127.7692833548	      -79.4943435442	      -35.8078259762	       29.6161503068	      -12.0648625412	       -8.2093330541	        0.3910032056	       13.0541248091	       35.4851629324	       17.5483382486	       -0.1349039096	        0.2222112677	        1.2589725963	        2.9014295462	       -0.0165137352	        0.2217190099	       -0.1713591555	       -4.2848583611	        1.5983054247	        0.1107923223	        2.6084048130	       -0.0670410512	        0.0156062923	       -0.1957303504	
        0.9350000000	      -27.6044411217	      -50.9534490387	       81.3642781915	      -10.6032031882	     -363.2498562871	     -166.1974888650	       81.7312437955	       15.8364251732	       -1.8517340321	       23.0829865615	        4.2249589581	       -0.3547506923	        0.2125325887	     -168.8727505482	      -76.6135460910	      -44.4044778455	       30.2900345391	      -36.4051959299	       -8.7456087160	        0.3612315556	        1.2261043318	       25.3481376531	       14.8320514480	        0.1997687708	        0.7027785138	        1.2559282809	        2.6009477169	       -0.0151625149	        0.2011147167	       -0.1491337240	       -3.0263851581	        0.8789775078	       -0.1768363312	        2.3961506288	       -0.0663184067	       -0.0032465651	       -0.1821366424	
        0.9400000000	       -1.9900644851	      -73.3261771240	       73.9622000345	      -69.7734033887	     -488.1598977751	     -108.2514844049	       81.6196700534	       18.4905237033	       -2.5452834273	       25.1306413957	        4.2229067137	       -0.3334281313	        0.2142706222	     -191.5713550978	      -67.5306077489	      -50.4950916877	       34.8400785824	      -60.2230438436	      -10.0089217394	        0.3061485701	       -2.0021101574	       15.2275729505	       10.2119188983	        0.1332142630	        1.2206628437	        1.2434780856	        2.3019210899	       -0.0144871811	        0.1758495374	       -0.1316822457	       -2.1085613029	        0.1426317706	       -0.2724923774	        2.2633867914	       -0.0613633214	       -0.0050056615	       -0.1669667272	
        0.9450000000	       17.9167885328	      -77.5310751055	       63.7224803913	     -118.5897407447	     -532.6870668997	      -31.5228234138	       78.4658433177	       20.5448950994	       -3.6504030026	       26.4504157025	        4.1829260025	       -0.2689566680	        0.2179520065	     -197.5090013491	      -61.1907481765	      -52.3564027639	       49.0987922855	      -79.2345486827	      -10.4076443087	        0.2449205684	        2.6911991248	        8.8426636016	        4.1689060142	       -0.6365626142	        1.5487445268	        1.1267214745	        2.2221234174	       -0.0219258968	        0.1462029820	       -0.1312967721	       -1.4653424800	       -0.2243202423	       -0.2063240749	        2.2981313695	       -0.0537718166	        0.0250397504	       -0.1660949796	
        0.9500000000	       28.2196824460	      -51.9712671694	       50.9248192903	     -151.5359872356	     -498.2514976704	       39.0226666989	       74.1240691918	       21.9169603698	       -5.1650508104	       26.8884637116	        4.1112495779	       -0.1637085282	        0.2238496875	     -182.1835069049	      -59.6339382482	      -45.7824198642	       73.7746172370	      -91.5384823056	       -8.2103768658	        0.1857974638	       19.8578499571	        7.0715140892	       -3.1599020398	       -1.6939995128	        1.6099764686	        0.7996054528	        2.6066119545	       -0.0444796934	        0.1079236301	       -0.1822583425	       -0.9200661699	       -0.1045312009	        0.2678026451	        2.8739362039	       -0.0451529719	        0.0995901568	       -0.2048549040	
        0.9550000000	       27.3145803038	      -10.9713435873	       36.8914094136	     -158.9279498307	     -397.0823783857	       85.9313639047	       69.6084674120	       22.1745407909	       -6.9144475351	       26.1649116011	        3.9967812837	       -0.0247589743	        0.2307415407	     -154.7458998466	      -64.0384597459	      -32.7154381601	      105.1913944937	      -97.1937601587	       -4.1758019925	        0.1352295747	       43.4677742087	       11.3230818918	      -11.4276597199	       -2.7406550463	        1.2207517135	        0.2093832139	        3.4166963228	       -0.0821613979	        0.0560298388	       -0.2757286848	       -0.2024416531	        0.7324990220	        1.0707520141	        3.8636955235	       -0.0358604547	        0.2124273008	       -0.2756364864	
        0.9600000000	       22.0676957228	       29.4516582280	       25.1070554654	     -138.8066780848	     -254.1410280128	       84.4290651599	       64.8721904006	       21.0623727778	       -8.5180140916	       24.4954544234	        3.8129759965	        0.1278821185	        0.2345589256	     -126.7848795813	      -71.2776871741	      -19.4360255623	      134.8447674218	     -101.9307800331	       -0.3704930607	        0.0971668907	       68.3771994675	       20.4188879151	      -20.0272116055	       -3.4598969496	        0.3807038429	       -0.6594998907	        4.5440901320	       -0.1330502793	       -0.0122475004	       -0.4023559206	        0.8363294220	        2.2362004885	        2.1646017840	        5.1605880647	       -0.0255493755	        0.3546353486	       -0.3689826371	
